<?xml version="1.0" standalone="no"?>
<!DOCTYPE svg PUBLIC "-//W3C//DTD SVG 20010904//EN"
 "http://www.w3.org/TR/2001/REC-SVG-20010904/DTD/svg10.dtd">
<svg version="1.0" xmlns="http://www.w3.org/2000/svg"
 width="360.000000pt" height="360.000000pt" viewBox="0 0 360.000000 360.000000"
 preserveAspectRatio="xMidYMid meet">

<g transform="translate(0.000000,360.000000) scale(0.100000,-0.100000)"
fill="#000000" stroke="none">
<path d="M833 2363 c-586 -444 -611 -464 -627 -497 -9 -19 -16 -48 -16 -65 0
-73 15 -88 316 -316 159 -121 335 -254 392 -297 97 -74 105 -78 155 -78 62 0
108 25 134 72 15 28 18 64 21 251 l3 217 1042 0 c972 0 1044 1 1077 18 107 53
107 207 0 263 -33 18 -82 19 -1077 19 l-1042 0 -3 218 c-3 186 -6 222 -21 250
-26 47 -72 72 -134 72 -51 0 -55 -2 -220 -127z"/>
</g>
</svg>
